<?xml version="1.0" encoding="UTF-8"?>
<svg width="752pt" height="752pt" version="1.1" viewBox="0 0 752 752" xmlns="http://www.w3.org/2000/svg">
 <g>
  <path d="m338.26 264.27-30.336 30.34 30.336 30.34 10.359-10.363-19.238-19.977 19.238-19.98z"/>
  <path d="m403.38 274.62 19.242 19.98-19.242 19.977 10.359 10.363 30.34-30.34-30.34-30.34z"/>
  <path d="m352.57 336.42 33.02-88.777 13.871 5.1602-33.02 88.777z"/>
  <path d="m560.25 529.91c-2.9609-8.8789-9.6211-15.539-17.758-18.5v-224.21h-48.84c-3.6992-62.156-54.758-110.99-117.66-110.99s-113.96 48.84-117.66 111l-48.836-0.003906v216.81c-8.1406 3.6992-14.059 11.098-15.539 20.719-10.359 3.6992-17.758 13.32-17.758 25.16 0 14.801 11.84 25.898 25.898 25.898h62.898c13.32 0 23.68-10.359 23.68-23.68 0-9.6211-6.6602-18.5-15.539-22.199-4.4414-13.32-17.758-22.199-32.559-19.98-4.4414-4.4414-10.359-7.3984-17.02-8.1406l-0.003906-199.79h34.039c4.4414 59.199 51.797 106.55 111 110.26v30.336c-1.4805 0-2.9609-0.73828-4.4414-0.73828-14.059 0-25.16 10.359-27.379 22.938-10.359 3.6992-17.758 13.32-17.758 25.16 0 14.801 11.84 25.898 25.898 25.898h62.898c13.32 0 23.68-10.359 23.68-23.68 0-9.6211-6.6602-18.5-15.539-22.199-4.4414-13.32-17.758-22.199-32.559-19.98l-0.73828-0.73828v-37.738c59.934-2.9609 107.29-50.316 110.99-109.52h34.039v207.93c-5.1797-5.1797-11.84-8.1406-19.98-8.1406-14.059 0-25.16 10.359-27.379 22.938-10.359 3.6992-17.758 13.32-17.758 25.16 0 14.801 11.84 25.898 25.898 25.898h62.898c13.32 0 23.68-10.359 23.68-23.68 0.73828-9.6133-5.9219-18.496-14.801-22.195zm-327.81-7.3984 2.9609 5.1797 5.1797-1.4805c1.4805-0.73828 2.9609-0.73828 4.4414-0.73828 7.3984 0 14.059 5.1797 14.801 12.578l0.73828 5.1797 5.1797 0.73828c4.4414 0.73828 7.3984 4.4414 7.3984 8.8789 0 5.1797-3.6992 8.8789-8.8789 8.8789l-62.156 0.003906c-5.9219-0.74219-11.102-5.9219-11.102-11.84s4.4414-11.098 11.098-11.098l7.3984-0.73828-0.73828-7.3984v-1.4805c0-6.6602 5.918-12.578 12.578-12.578 4.4453-0.003906 8.1445 2.2148 11.102 5.9141zm155.39-56.977c7.3984 0 14.059 5.1797 14.801 12.578l0.73828 5.1797 5.1797 0.73828c4.4414 0.73828 7.3984 4.4414 7.3984 8.8789 0 5.1797-3.6992 8.8789-8.8789 8.8789h-62.898c-6.6602 0-11.098-5.1797-11.098-11.098 0-5.918 4.4414-11.098 11.098-11.098l7.3984-0.73828-0.73828-8.8789c0-6.6602 5.918-12.578 12.578-12.578 4.4414 0 8.1406 2.2188 11.098 5.918l2.9609 5.1797 5.1797-1.4805c2.2266-1.4805 3.7031-1.4805 5.1836-1.4805zm-11.84-67.34c-56.977 0-103.6-46.617-103.6-103.6 0.003906-56.973 46.621-103.59 103.6-103.59s103.6 46.617 103.6 103.6c0 56.977-46.617 103.59-103.6 103.59zm176.11 162.79h-62.898c-6.6602 0-11.098-5.1797-11.098-11.098s4.4414-11.098 11.098-11.098l7.3984-0.73828-0.73828-7.3984v-1.4805c0-6.6602 5.918-12.578 12.578-12.578 4.4414 0 8.1406 2.2188 11.098 5.918l2.9609 5.1797 5.1797-1.4805c1.4805-0.73828 2.9609-0.73828 4.4414-0.73828 7.3984 0 14.059 5.1797 14.801 12.578l0.73828 5.1797 5.1797 0.73828c4.4414 0.73828 7.3984 4.4414 7.3984 8.8789 0.74219 4.4375-2.957 8.1367-8.1367 8.1367z"/>
 </g>
</svg>
